<svg xmlns="http://www.w3.org/2000/svg" viewBox="0 0 64 64" width="64" height="64" role="img" aria-label="Plurel Pay">
  <rect width="64" height="64" rx="14" fill="#0D0F12"/>
  <g transform="translate(10 8) scale(0.70)">
    <path fill="#FFFFFF" d="M24.01 4.1L39.74 4.35L44.66 6.32L48.84 10.0L51.54 14.92L52.52 19.34L52.03 28.68L48.84 35.81L45.89 38.76L41.46 40.97L26.22 41.46L25.98 34.58L26.72 33.11L29.67 31.39L36.3 31.39L38.27 30.65L41.22 27.7L42.45 24.26L41.95 19.59L38.76 15.66L35.81 14.67L26.96 14.67L24.01 15.9L22.29 18.36L22.05 31.39L12.22 36.79L11.48 36.3L11.48 16.64L12.22 13.44L16.64 7.3L20.33 5.09L23.77 4.35Z"/>
    <path fill="#F26A2E" d="M20.82 35.07L22.29 35.81L22.29 54.73L21.31 57.68L18.36 59.9L15.41 59.9L12.71 58.18L11.48 55.72L11.48 41.22L13.2 38.76L20.57 35.32Z"/>
  </g>
</svg>
